<?xml version="1.0" encoding="utf-8"?>
<!-- Generator: Adobe Illustrator 24.0.1, SVG Export Plug-In . SVG Version: 6.00 Build 0)  -->
<svg version="1.1" id="Layer_1" xmlns="http://www.w3.org/2000/svg" xmlns:xlink="http://www.w3.org/1999/xlink" x="0px" y="0px"
	 viewBox="0 0 160 60" style="enable-background:new 0 0 160 60;" xml:space="preserve">
<style type="text/css">
	.st0{display:none;fill-rule:evenodd;clip-rule:evenodd;fill:#040406;stroke:#161617;stroke-width:0.5817;stroke-miterlimit:10;}
	.st1{fill-rule:evenodd;clip-rule:evenodd;fill:#FFFFFF;}
</style>
<g>
	<rect x="-16.3" y="-6.1" class="st0" width="192.6" height="72.2"/>
	<path class="st1" d="M117.4,38.1h-1.8c0,1.2-0.6,0.8,5,0.8c0.3,0,0.3-0.2,0.3-0.6c0-0.4-1.1-0.3-2-0.3l2.8-6.5h6.4
		c0.2,0.8,2.7,5.7,2.8,6.5c-2.1,0-2.5-0.3-2.5,0.6c0,0.2,0.1,0.3,0.3,0.3h8.6c0.4,0,0.3-0.2,0.3-0.6c0-0.5-1.5-0.3-2.4-0.3
		c-0.1-0.2-0.2-0.4-0.3-0.6l-4-9.1c-0.3-0.8-0.7-1.5-1.1-2.4c-0.4-0.8-0.7-1.5-1.1-2.4c-0.2-0.4-0.3-0.7-0.5-1.2
		c-0.2-0.4-0.3-0.8-0.6-1.2l-0.8-1.8c-0.2-0.6-0.1-0.5-1.2-0.5c-0.3,0-0.4,0.5-0.7,1c-2.2,5.6-4.9,11.4-7.1,16.9
		C117.7,37.2,117.5,37.7,117.4,38.1L117.4,38.1z M121.9,30.6h5.8l-2.8-6.8L121.9,30.6z"/>
	<path class="st1" d="M24.8,20.1h1.9v18c-2.2,0-1.9-0.2-1.9,0.7h5.5v-0.7h-2v-16l4.4,6.1c0.8,1.1,7.1,10,7.2,10.3h1.4V20.1h1.9v-0.8
		h-5.5v0.8h2v11.5c-0.3-0.2-8.3-12-8.4-12.2h-6.6C24.8,19.4,24.8,20.1,24.8,20.1z"/>
	<path class="st1" d="M85,20.1c3,0,1.9-0.4,3.7,2.3c0.6,0.8,1.1,1.7,1.6,2.5l3.1,5c-0.7,1.1-3.8,4.7-4.9,6.1L87,38.1
		c-0.3,0-0.6,0-0.9,0c-0.7-0.1-0.7-0.1-0.7,0.6c0,0.2,0.1,0.3,0.3,0.3H90c0.4,0,0.3-0.2,0.3-0.8h-1.5l4.2-5.2
		c0.2-0.3,1.2-1.6,1.5-1.7c0.1,0.3,0.3,0.6,0.5,0.8c0.2,0.3,0.4,0.6,0.6,0.9c0.4,0.6,0.7,1.1,1.1,1.7l2.2,3.5h-2.2v0.8h8.5
		c0.4,0,0.3-0.2,0.3-0.8c-2.5,0-1.7,0.3-2.7-1.2c-0.3-0.4-0.6-0.9-0.8-1.3l-5-7.7c0.3-0.4,2.7-3.4,3.2-3.9l2.7-3.4
		c0.4-0.6,0.2-0.4,1.8-0.4v-0.8h-4.9v0.8h1.6L96,26.6c-0.1-0.4-0.7-1.3-1-1.7l-3.2-4.8H94v-0.8h-9L85,20.1L85,20.1z"/>
	<path class="st1" d="M55.7,20.1h2.5v18h-2.5v0.7h16.2v-6.2h-0.4c-0.7,2.8-2.6,5.5-6,5.5h-3.3v-9.2c2.9,0,4.2-0.2,5.4,3.1
		c0.1,0.4,0,0.5,0.6,0.5v-8.3h-0.4c-0.2,0.9-0.6,1.8-1.1,2.5c-1,1.4-2.8,1.2-4.4,1.2v-7.8c1.6,0,4.9-0.2,6.1,0.3
		c1.1,0.4,1.4,0.9,2.1,1.6c1.2,1.4,0.6,2.2,1.5,2.2v-4.9H55.7V20.1z"/>
</g>
</svg>
